<svg id="Layer_1" data-name="Layer 1" xmlns="http://www.w3.org/2000/svg" xmlns:xlink="http://www.w3.org/1999/xlink" viewBox="0 0 368 368"><defs><style>.cls-1,.cls-13,.cls-14,.cls-2,.cls-6{fill:none;}.cls-2,.cls-6{stroke:#8c8c8c;}.cls-14,.cls-2,.cls-6{stroke-miterlimit:10;}.cls-3{fill:#fafafa;}.cls-4{fill:#fff;}.cls-5{fill:#8c8c8c;}.cls-6{stroke-linecap:round;}.cls-13,.cls-6{stroke-width:3px;}.cls-7{fill:#88d3ed;}.cls-8{clip-path:url(#clip-path);}.cls-9{opacity:0.7;}.cls-10{fill:#ed9ab8;}.cls-11{isolation:isolate;}.cls-12{fill:#333;}.cls-13{stroke:#fff;}.cls-14{stroke:#666;}.cls-15{fill:#666;}</style><clipPath id="clip-path"><path class="cls-1" d="M232.3,11.5a3.22,3.22,0,0,0-2.8.9,2.63,2.63,0,0,0-.6,2.1,6.61,6.61,0,0,1-.3,2.4,8.49,8.49,0,0,1-2.4,4.3,7.74,7.74,0,0,1-4.3,2,22.88,22.88,0,0,1-4.7.4H153.1a22.27,22.27,0,0,1-4.7-.4,8.13,8.13,0,0,1-4.3-2,9.62,9.62,0,0,1-2.7-6.7,2.74,2.74,0,0,0-.6-2.1,3.54,3.54,0,0,0-2.8-.9H121.5a14.87,14.87,0,0,0-14.9,14.9V341.5a14.87,14.87,0,0,0,14.9,14.9H248.6a14.87,14.87,0,0,0,14.9-14.9V26.4a14.87,14.87,0,0,0-14.9-14.9Z"/></clipPath></defs><title>OV_LayoutGuides_Portrait</title><path class="cls-2" d="M232.3,11.5a3.22,3.22,0,0,0-2.8.9,2.63,2.63,0,0,0-.6,2.1,6.61,6.61,0,0,1-.3,2.4,8.49,8.49,0,0,1-2.4,4.3,7.74,7.74,0,0,1-4.3,2,22.88,22.88,0,0,1-4.7.4H153.1a22.27,22.27,0,0,1-4.7-.4,8.13,8.13,0,0,1-4.3-2,9.62,9.62,0,0,1-2.7-6.7,2.74,2.74,0,0,0-.6-2.1,3.54,3.54,0,0,0-2.8-.9H121.5a14.87,14.87,0,0,0-14.9,14.9V341.5a14.87,14.87,0,0,0,14.9,14.9H248.6a14.87,14.87,0,0,0,14.9-14.9V26.4a14.87,14.87,0,0,0-14.9-14.9Z"/><rect class="cls-3" width="368" height="368"/><path class="cls-4" d="M120.21,368A24.4,24.4,0,0,1,96,343.6V25.9A24.85,24.85,0,0,1,120.61,1H250.39A24.78,24.78,0,0,1,275,25.9V343.6A24.33,24.33,0,0,1,250.79,368Z"/><path class="cls-5" d="M249.9,1A24.24,24.24,0,0,1,274,25.4V343.1A23.79,23.79,0,0,1,250.3,367H119.7A23.79,23.79,0,0,1,96,343.1V25.4A24.31,24.31,0,0,1,120.1,1H250m-.2-1H120.1A25.25,25.25,0,0,0,95,25.4V343.1A24.8,24.8,0,0,0,119.7,368H250.3A24.86,24.86,0,0,0,275,343.1V25.4A25.39,25.39,0,0,0,249.8,0Z"/><path class="cls-2" d="M248.3,3.5H121.9A23.39,23.39,0,0,0,98.6,27.1V341a23.45,23.45,0,0,0,23.3,23.6H248.3A23.39,23.39,0,0,0,271.6,341V27.1C271.5,14.1,261.1,3.5,248.3,3.5Z"/><path class="cls-5" d="M201.6,14.5a3,3,0,1,1,3,3,3,3,0,0,1-3-3"/><path class="cls-5" d="M193.5,16H175.9a1.55,1.55,0,0,1-1.1-.3,1.69,1.69,0,0,1,0-2.4,1.43,1.43,0,0,1,1.1-.3h17.6a1.55,1.55,0,0,1,1.1.3,1.69,1.69,0,0,1,0,2.4A1.55,1.55,0,0,1,193.5,16Z"/><rect class="cls-5" x="94" y="48" width="1" height="13"/><rect class="cls-5" x="94" y="110" width="1" height="27"/><rect class="cls-5" x="275" y="85" width="1" height="43"/><rect class="cls-5" x="94" y="76" width="1" height="27"/><line class="cls-6" x1="162.5" y1="350.5" x2="210" y2="350.5"/><rect class="cls-7" x="106.5" y="30.5" width="157" height="309"/><path class="cls-5" d="M263,31V339H107V31H263m1-1H106V340H264V30Z"/><g class="cls-8"><g class="cls-9"><rect class="cls-10" x="106" y="11" width="7" height="344"/></g></g><g class="cls-8"><g class="cls-9"><rect class="cls-10" x="257" y="11" width="7" height="344"/></g></g><path class="cls-2" d="M232.3,11.5a3.22,3.22,0,0,0-2.8.9,2.63,2.63,0,0,0-.6,2.1,6.61,6.61,0,0,1-.3,2.4,8.49,8.49,0,0,1-2.4,4.3,7.74,7.74,0,0,1-4.3,2,22.88,22.88,0,0,1-4.7.4H153.1a22.27,22.27,0,0,1-4.7-.4,8.13,8.13,0,0,1-4.3-2,9.62,9.62,0,0,1-2.7-6.7,2.74,2.74,0,0,0-.6-2.1,3.54,3.54,0,0,0-2.8-.9H121.5a14.87,14.87,0,0,0-14.9,14.9V341.5a14.87,14.87,0,0,0,14.9,14.9H248.6a14.87,14.87,0,0,0,14.9-14.9V26.4a14.87,14.87,0,0,0-14.9-14.9Z"/><g class="cls-11"><path class="cls-12" d="M311.27,192v-5.92h-.06L308.77,192h-.82l-2.44-5.87h-.06V192h-.9v-7.75h1.12l2.65,6.41h.09l2.65-6.41h1.12V192Z"/><path class="cls-12" d="M313.69,190.41c0-1,.76-1.63,2.11-1.71l1.67-.1v-.53c0-.71-.45-1.11-1.31-1.11-.69,0-1.18.26-1.31.72h-.93c.12-.93,1-1.54,2.27-1.54,1.41,0,2.2.73,2.2,1.93v4h-.88v-.85h-.09a2,2,0,0,1-1.78,1A1.76,1.76,0,0,1,313.69,190.41Zm3.78-.54v-.53l-1.56.1c-.88.06-1.27.37-1.27.95s.5.93,1.17.93A1.52,1.52,0,0,0,317.47,189.87Z"/><path class="cls-12" d="M320.1,186.24H321v.86h.09a1.62,1.62,0,0,1,1.61-1l.46,0v.92a3.71,3.71,0,0,0-.59-.05,1.42,1.42,0,0,0-1.52,1.41V192h-.92Z"/><path class="cls-12" d="M324.09,192.67h1c.1.47.62.78,1.45.78,1,0,1.65-.51,1.65-1.36v-1.14h-.09a2,2,0,0,1-1.82,1c-1.5,0-2.43-1.16-2.43-2.89s.94-2.91,2.43-2.91a2.07,2.07,0,0,1,1.86,1h.09v-.92h.88v5.89c0,1.29-1,2.12-2.58,2.12C325.12,194.25,324.23,193.63,324.09,192.67Zm4.1-3.62c0-1.26-.65-2.08-1.72-2.08s-1.68.82-1.68,2.08.6,2.08,1.68,2.08S328.19,190.31,328.19,189.05Z"/><path class="cls-12" d="M330.67,184.42a.64.64,0,1,1,.64.64A.65.65,0,0,1,330.67,184.42Zm.18,1.82h.92V192h-.92Z"/><path class="cls-12" d="M333.54,186.24h.88v.91h.09a1.74,1.74,0,0,1,1.74-1,1.89,1.89,0,0,1,2,2.14V192h-.92v-3.52c0-1-.44-1.54-1.36-1.54a1.47,1.47,0,0,0-1.52,1.63V192h-.92Z"/><path class="cls-12" d="M342,186.14a2,2,0,0,1,2.18,1.55h-.91a1.18,1.18,0,0,0-1.27-.77c-.69,0-1.22.35-1.22.86s.32.64,1,.81l.89.21c1.09.26,1.62.74,1.62,1.57,0,1-1,1.75-2.32,1.75s-2.18-.62-2.28-1.58h1a1.28,1.28,0,0,0,1.36.8c.78,0,1.34-.37,1.34-.9s-.3-.67-.92-.82l-1-.24c-1.08-.26-1.58-.73-1.58-1.57S340.76,186.14,342,186.14Z"/></g><g class="cls-11"><path class="cls-12" d="M164.15,190c.12.81.89,1.33,2,1.33s1.81-.56,1.81-1.33-.48-1.08-1.55-1.35l-1-.26c-1.4-.35-2-1-2-2.09,0-1.32,1.1-2.21,2.74-2.21a2.47,2.47,0,0,1,2.7,2.14h-1A1.59,1.59,0,0,0,166.1,185c-1,0-1.71.52-1.71,1.3,0,.61.42,1,1.49,1.23l.81.21c1.61.4,2.25,1,2.25,2.16,0,1.42-1.12,2.33-2.9,2.33s-2.78-.87-2.88-2.21Z"/><path class="cls-12" d="M170.09,190.41c0-1,.76-1.63,2.11-1.71l1.67-.1v-.53c0-.71-.45-1.11-1.31-1.11-.69,0-1.18.26-1.31.72h-.93c.12-.93,1-1.54,2.27-1.54,1.41,0,2.2.73,2.2,1.93v4h-.88v-.85h-.09a2,2,0,0,1-1.78,1A1.76,1.76,0,0,1,170.09,190.41Zm3.78-.54v-.53l-1.56.1c-.88.06-1.27.37-1.27.95s.5.93,1.17.93A1.52,1.52,0,0,0,173.87,189.87Z"/><path class="cls-12" d="M176.89,187h-1v-.77h1v-.56c0-1.19.62-1.68,1.73-1.68a3.21,3.21,0,0,1,.57.05v.77a2.81,2.81,0,0,0-.52,0c-.55,0-.86.28-.86.93v.54h1.33V187h-1.33v5h-.92Z"/><path class="cls-12" d="M185,190.53a2.31,2.31,0,0,1-2.44,1.6c-1.61,0-2.61-1.16-2.61-3s1-3,2.61-3,2.51,1.11,2.51,2.91v.35h-4.16v0c0,1.14.69,1.87,1.67,1.87a1.5,1.5,0,0,0,1.49-.78Zm-4.09-1.87h3.19a1.56,1.56,0,0,0-1.55-1.7A1.65,1.65,0,0,0,180.91,188.66Z"/><path class="cls-12" d="M189.28,190.41c0-1,.76-1.63,2.11-1.71l1.67-.1v-.53c0-.71-.45-1.11-1.31-1.11-.69,0-1.18.26-1.31.72h-.93c.12-.93,1-1.54,2.27-1.54,1.41,0,2.2.73,2.2,1.93v4h-.88v-.85H193a2,2,0,0,1-1.78,1A1.76,1.76,0,0,1,189.28,190.41Zm3.78-.54v-.53l-1.56.1c-.88.06-1.27.37-1.27.95s.5.93,1.17.93A1.52,1.52,0,0,0,193.06,189.87Z"/><path class="cls-12" d="M195.69,186.24h.88v.86h.09a1.62,1.62,0,0,1,1.61-1l.46,0v.92a3.71,3.71,0,0,0-.59-.05,1.42,1.42,0,0,0-1.52,1.41V192h-.92Z"/><path class="cls-12" d="M204.48,190.53a2.31,2.31,0,0,1-2.44,1.6c-1.61,0-2.61-1.16-2.61-3s1-3,2.61-3,2.51,1.11,2.51,2.91v.35h-4.16v0c0,1.14.69,1.87,1.67,1.87a1.5,1.5,0,0,0,1.49-.78Zm-4.09-1.87h3.19A1.56,1.56,0,0,0,202,187,1.65,1.65,0,0,0,200.39,188.66Z"/><path class="cls-12" d="M205.66,190.41c0-1,.76-1.63,2.11-1.71l1.67-.1v-.53c0-.71-.45-1.11-1.31-1.11-.69,0-1.18.26-1.31.72h-.93c.12-.93,1-1.54,2.27-1.54,1.41,0,2.2.73,2.2,1.93v4h-.88v-.85h-.09a2,2,0,0,1-1.78,1A1.76,1.76,0,0,1,205.66,190.41Zm3.78-.54v-.53l-1.56.1c-.88.06-1.27.37-1.27.95s.5.93,1.17.93A1.52,1.52,0,0,0,209.44,189.87Z"/></g><line class="cls-13" x1="299" y1="189.5" x2="260" y2="189.5"/><circle class="cls-4" cx="260" cy="189.5" r="2.5"/><line class="cls-14" x1="299" y1="189.5" x2="260" y2="189.5"/><circle class="cls-15" cx="260" cy="189.5" r="1.5"/></svg>