<svg id="Layer_1" data-name="Layer 1" xmlns="http://www.w3.org/2000/svg" viewBox="0 0 368 368"><defs><style>.cls-1{fill:#fafafa;}.cls-2{fill:#fff;}.cls-3{fill:#8c8c8c;}.cls-11,.cls-12,.cls-14,.cls-4,.cls-5{fill:none;}.cls-4,.cls-5{stroke:#8c8c8c;}.cls-12,.cls-4,.cls-5{stroke-miterlimit:10;}.cls-5{stroke-linecap:round;}.cls-11,.cls-5{stroke-width:3px;}.cls-6{fill:#88d3ed;}.cls-7{isolation:isolate;}.cls-8{fill:#333;}.cls-9{opacity:0.7;}.cls-10{fill:#ed9ab8;}.cls-11{stroke:#fff;}.cls-12,.cls-14{stroke:#666;}.cls-13{fill:#666;}</style></defs><title>OV_LayoutGuides_Landscape</title><rect class="cls-1" width="368" height="368"/><path class="cls-2" d="M25,274.9A24.89,24.89,0,0,1,0,250.3V120.6A24.81,24.81,0,0,1,25,96H343.53A24.36,24.36,0,0,1,368,120.2V250.8A24.43,24.43,0,0,1,343.53,275H25Z"/><path class="cls-3" d="M343.1,95.9A23.8,23.8,0,0,1,367,119.61V250.29A23.8,23.8,0,0,1,343.1,274H25.4A24.31,24.31,0,0,1,1,249.89V120.11A24.25,24.25,0,0,1,25.4,96H343m.1-1H25.4A25.32,25.32,0,0,0,0,120.11V249.89A25.25,25.25,0,0,0,25.4,275H343.1A24.8,24.8,0,0,0,368,250.29V119.61C368.1,106.11,356.9,95,343.1,95Z"/><path class="cls-4" d="M3.6,121.7V248.1a23.39,23.39,0,0,0,23.6,23.3H341a23.45,23.45,0,0,0,23.6-23.3V121.7A23.39,23.39,0,0,0,341,98.4H27.1A23.43,23.43,0,0,0,3.6,121.7Zm8,16a3.22,3.22,0,0,0,.9,2.8,2.63,2.63,0,0,0,2.1.6,6.61,6.61,0,0,1,2.4.3,8.49,8.49,0,0,1,4.3,2.4,7.74,7.74,0,0,1,2,4.3,22.88,22.88,0,0,1,.4,4.7v64.1a22.27,22.27,0,0,1-.4,4.7,8.13,8.13,0,0,1-2,4.3,9.62,9.62,0,0,1-6.7,2.7,2.74,2.74,0,0,0-2.1.6,3.54,3.54,0,0,0-.9,2.8v16.5a14.87,14.87,0,0,0,14.9,14.9H341.6a14.87,14.87,0,0,0,14.9-14.9V121.4a14.87,14.87,0,0,0-14.9-14.9H26.5a14.87,14.87,0,0,0-14.9,14.9Z"/><path class="cls-3" d="M14.6,168.4a3,3,0,1,1,3-3,3,3,0,0,1-3,3"/><path class="cls-3" d="M16.1,176.5v17.6a1.55,1.55,0,0,1-.3,1.1,1.69,1.69,0,0,1-2.4,0,1.43,1.43,0,0,1-.3-1.1V176.5a1.55,1.55,0,0,1,.3-1.1,1.69,1.69,0,0,1,2.4,0A2,2,0,0,1,16.1,176.5Z"/><rect class="cls-3" x="48.1" y="274.9" width="13" height="1"/><rect class="cls-3" x="110.1" y="274.9" width="27" height="1"/><rect class="cls-3" x="85" y="94" width="43" height="1"/><rect class="cls-3" x="76.1" y="274.9" width="27" height="1"/><line class="cls-5" x1="143.8" y1="257.4" x2="223.8" y2="257.4"/><rect class="cls-6" x="30.6" y="106.4" width="309" height="145"/><path class="cls-3" d="M339.1,106.9v144H31.1v-144h308m1,0H30.1v145h310v-145Z"/><g class="cls-7"><path class="cls-8" d="M172.29,310.93V305h-.06l-2.44,5.87H169L166.52,305h-.06v5.92h-.9v-7.75h1.12l2.65,6.41h.09l2.65-6.41h1.12v7.75Z"/><path class="cls-8" d="M174.71,309.31c0-1,.76-1.63,2.11-1.71l1.67-.1V307c0-.71-.45-1.11-1.31-1.11-.69,0-1.18.26-1.3.72h-.93c.12-.93,1-1.54,2.27-1.54,1.41,0,2.2.73,2.2,1.93v4h-.88v-.85h-.09a2,2,0,0,1-1.78,1A1.76,1.76,0,0,1,174.71,309.31Zm3.78-.54v-.53l-1.56.1c-.88.06-1.27.37-1.27.95s.5.93,1.17.93A1.52,1.52,0,0,0,178.49,308.77Z"/><path class="cls-8" d="M181.12,305.14H182V306h.09a1.62,1.62,0,0,1,1.61-1l.46,0V306a3.71,3.71,0,0,0-.59-.05,1.42,1.42,0,0,0-1.52,1.41v3.59h-.92Z"/><path class="cls-8" d="M185.11,311.57h1c.1.47.62.78,1.45.78,1,0,1.65-.51,1.65-1.36v-1.14h-.09a2,2,0,0,1-1.82,1c-1.5,0-2.43-1.16-2.43-2.89s.94-2.91,2.43-2.91a2.07,2.07,0,0,1,1.86,1h.09v-.92h.88V311c0,1.29-1,2.12-2.58,2.12C186.14,313.16,185.25,312.53,185.11,311.57Zm4.1-3.62c0-1.26-.65-2.08-1.72-2.08s-1.68.82-1.68,2.08.6,2.08,1.68,2.08S189.21,309.21,189.21,308Z"/><path class="cls-8" d="M191.69,303.32a.64.64,0,1,1,.64.64A.65.65,0,0,1,191.69,303.32Zm.18,1.82h.92v5.79h-.92Z"/><path class="cls-8" d="M194.56,305.14h.88v.91h.09a1.74,1.74,0,0,1,1.74-1,1.89,1.89,0,0,1,2,2.14v3.75h-.92v-3.52c0-1-.44-1.54-1.36-1.54a1.47,1.47,0,0,0-1.52,1.63v3.43h-.92Z"/><path class="cls-8" d="M203,305a2,2,0,0,1,2.18,1.55h-.91a1.18,1.18,0,0,0-1.27-.77c-.69,0-1.22.35-1.22.86s.32.64,1,.81l.89.21c1.09.26,1.62.74,1.62,1.57,0,1-1,1.75-2.32,1.75s-2.18-.62-2.28-1.58h1a1.28,1.28,0,0,0,1.36.8c.78,0,1.34-.37,1.34-.9s-.3-.67-.92-.82l-1-.24c-1.08-.26-1.58-.73-1.58-1.57S201.77,305,203,305Z"/></g><g class="cls-9"><rect class="cls-10" x="30.1" y="105.9" width="7" height="157"/></g><g class="cls-9"><rect class="cls-10" x="333" y="105.9" width="7" height="157"/></g><polyline class="cls-11" points="186.1 286.4 33.6 286.4 33.6 247.4"/><circle class="cls-2" cx="33.6" cy="247.4" r="2.5"/><polyline class="cls-12" points="186.1 286.4 33.6 286.4 33.6 247.4"/><circle class="cls-13" cx="33.6" cy="247.4" r="1.5"/><polyline class="cls-11" points="180.6 286.4 336.6 286.4 336.6 247.4"/><circle class="cls-2" cx="336.6" cy="247.4" r="2.5"/><polyline class="cls-14" points="180.6 286.4 336.6 286.4 336.6 247.4"/><circle class="cls-13" cx="336.6" cy="247.4" r="1.5"/><line class="cls-14" x1="185.6" y1="285.9" x2="185.6" y2="298.9"/><g class="cls-7"><path class="cls-8" d="M164.16,190.91c.12.81.89,1.33,2,1.33s1.81-.56,1.81-1.33-.48-1.08-1.55-1.35l-1-.26c-1.4-.35-2-1-2-2.09,0-1.32,1.1-2.21,2.74-2.21a2.47,2.47,0,0,1,2.7,2.14h-1a1.59,1.59,0,0,0-1.76-1.27c-1,0-1.71.52-1.71,1.3,0,.61.42,1,1.49,1.23l.81.21c1.61.4,2.25,1,2.25,2.16,0,1.42-1.12,2.33-2.89,2.33s-2.78-.87-2.88-2.21Z"/><path class="cls-8" d="M170.1,191.31c0-1,.76-1.63,2.11-1.71l1.67-.1V189c0-.71-.45-1.11-1.31-1.11-.69,0-1.18.26-1.31.72h-.93c.12-.93,1-1.54,2.27-1.54,1.41,0,2.2.73,2.2,1.93v4h-.88v-.85h-.09a2,2,0,0,1-1.78,1A1.76,1.76,0,0,1,170.1,191.31Zm3.78-.54v-.53l-1.56.1c-.88.06-1.27.37-1.27.95s.5.93,1.17.93A1.52,1.52,0,0,0,173.89,190.77Z"/><path class="cls-8" d="M176.9,187.92h-1v-.77h1v-.56c0-1.19.62-1.68,1.73-1.68a3.21,3.21,0,0,1,.57.05v.77a2.8,2.8,0,0,0-.52,0c-.55,0-.86.28-.86.93v.54h1.33v.77h-1.33v5h-.92Z"/><path class="cls-8" d="M185,191.43a2.31,2.31,0,0,1-2.44,1.6c-1.61,0-2.61-1.16-2.61-3s1-3,2.61-3,2.51,1.11,2.51,2.91v.35h-4.16v0c0,1.14.69,1.87,1.67,1.87a1.5,1.5,0,0,0,1.49-.78Zm-4.09-1.87h3.19a1.56,1.56,0,0,0-1.55-1.7A1.65,1.65,0,0,0,180.93,189.56Z"/><path class="cls-8" d="M189.3,191.31c0-1,.76-1.63,2.11-1.71l1.67-.1V189c0-.71-.45-1.11-1.31-1.11-.69,0-1.18.26-1.31.72h-.93c.12-.93,1-1.54,2.27-1.54,1.41,0,2.2.73,2.2,1.93v4h-.88v-.85H193a2,2,0,0,1-1.78,1A1.76,1.76,0,0,1,189.3,191.31Zm3.78-.54v-.53l-1.56.1c-.88.06-1.27.37-1.27.95s.5.93,1.17.93A1.52,1.52,0,0,0,193.08,190.77Z"/><path class="cls-8" d="M195.71,187.14h.88V188h.09a1.62,1.62,0,0,1,1.61-1l.46,0V188a3.71,3.71,0,0,0-.59-.05,1.42,1.42,0,0,0-1.52,1.41v3.59h-.92Z"/><path class="cls-8" d="M204.5,191.43a2.31,2.31,0,0,1-2.44,1.6c-1.61,0-2.61-1.16-2.61-3s1-3,2.61-3,2.51,1.11,2.51,2.91v.35h-4.16v0c0,1.14.69,1.87,1.67,1.87a1.5,1.5,0,0,0,1.49-.78Zm-4.09-1.87h3.19a1.56,1.56,0,0,0-1.55-1.7A1.65,1.65,0,0,0,200.41,189.56Z"/><path class="cls-8" d="M205.68,191.31c0-1,.76-1.63,2.11-1.71l1.67-.1V189c0-.71-.45-1.11-1.31-1.11-.69,0-1.18.26-1.31.72h-.93c.12-.93,1-1.54,2.27-1.54,1.41,0,2.2.73,2.2,1.93v4h-.88v-.85h-.09a2,2,0,0,1-1.78,1A1.76,1.76,0,0,1,205.68,191.31Zm3.78-.54v-.53l-1.56.1c-.88.06-1.27.37-1.27.95s.5.93,1.17.93A1.52,1.52,0,0,0,209.46,190.77Z"/></g></svg>